<?xml version="1.0" encoding="utf-8"?>
<!-- Generator: Adobe Illustrator 21.0.0, SVG Export Plug-In . SVG Version: 6.00 Build 0)  -->
<svg version="1.1"
	xmlns="http://www.w3.org/2000/svg"
	xmlns:xlink="http://www.w3.org/1999/xlink" x="0px" y="0px" viewBox="0 0 37.3 37.3" style="enable-background:new 0 0 37.3 37.3;" xml:space="preserve" fill="currentColor">
	<g>
		<path class="st0" d="M31.3,33.1c1,0,1.8-0.8,1.8-1.8c0-1-0.8-1.8-1.8-1.8c-1,0-1.8,0.8-1.8,1.8C29.5,32.3,30.3,33.1,31.3,33.1
		 M7.8,6C7.8,5,7,4.2,6,4.2C5,4.2,4.2,5,4.2,6C4.2,7,5,7.8,6,7.8C7,7.8,7.8,7,7.8,6 M32.9,28.7c4.8-6.6,4.5-16.5-2.4-22.9
		C23.8-0.3,14.4,0.1,8.6,4.5c0.7,1.3,0.6,2.6-0.5,3.7C7.1,9.2,5.8,9.3,4.5,8.6c-4.6,6.1-4.8,16.2,2.4,22.9
		c6.9,6.4,16.5,5.5,21.9,1.4c-0.8-1.5-0.3-2.9,0.5-3.7C30,28.4,31.3,27.9,32.9,28.7 M0,17.7c0.1-0.7,0.2-1.5,0.3-2.2
		c0.5-2.7,1.5-5.2,3-7.4c0.2-0.2,0.2-0.4,0-0.7C2.7,6.3,3,4.8,3.9,3.9C4.8,3,6.3,2.7,7.4,3.4c0.3,0.1,0.4,0.1,0.6,0
		c2.3-1.6,4.9-2.7,7.6-3.1c4.2-0.7,8.2,0,11.9,2c4.8,2.6,7.9,6.6,9.2,11.9c1.2,5,0.5,9.7-2.2,14.2c-0.2,0.4-0.5,0.7-0.7,1
		c-0.1,0.1-0.1,0.3,0,0.4c1,1.8,0.1,3.8-1.9,4.4c-0.7,0.2-1.5,0.1-2.1-0.3c-0.2-0.1-0.4-0.1-0.6,0c-2.3,1.6-4.9,2.7-7.7,3.1
		c-3.7,0.6-7.2,0.2-10.6-1.4C5.6,33.2,2.1,29,0.6,23.2c-0.3-1-0.3-2.1-0.5-3.1C0,20,0,19.9,0,19.8V17.7z"/>
		<path class="st0" d="M30,25.9C30,25.9,30,25.9,30,25.9c-3.6-1.4-7.2-2.7-10.8-4v0.9h-1.2v-0.9c-3.6,1.3-7.2,2.6-10.8,3.9
		c0,0,0,0.1,0,0.1c3.6,1.3,7.2,2.6,10.8,3.9v-0.9h1.2v0.9C22.9,28.5,26.5,27.2,30,25.9 M7.2,11.4c0.1,0.1,0.2,0.1,0.3,0.1
		c3.6,1.3,7.2,2.6,10.9,3.9c0.2,0.1,0.4,0,0.5,0c3.6-1.3,7.2-2.6,10.8-3.9c0.1,0,0.2-0.1,0.4-0.2c-0.1-0.1-0.2-0.1-0.2-0.1
		c-3.6-1.3-7.3-2.7-10.9-4c-0.2-0.1-0.4,0-0.6,0c-3.6,1.3-7.2,2.6-10.8,3.9C7.5,11.3,7.4,11.4,7.2,11.4 M31.3,25V12.3
		c-1.2,0.4-2.4,0.9-3.6,1.3c-2.7,1-5.4,2-8.1,2.9c-0.3,0.1-0.3,0.2-0.3,0.5c0,0.3,0,0.7,0,1h-1.2c0-0.3,0-0.7,0-1
		c0-0.3-0.1-0.4-0.3-0.5c-2.9-1-5.8-2.1-8.7-3.2c-1-0.4-2-0.7-3-1.1V25c0.1,0,0.1,0,0.2,0c3.9-1.4,7.8-2.8,11.6-4.2
		c0.1,0,0.2-0.2,0.2-0.3c0-0.4,0-0.7,0-1.1h1.2c0,0.3,0,0.7,0,1c0,0.3,0.1,0.4,0.4,0.5c2.4,0.9,4.8,1.7,7.1,2.6
		C28.3,23.9,29.7,24.5,31.3,25 M4.8,18.7c0-2.3,0-4.6,0-6.9c0-0.6,0.1-0.7,0.6-0.9C9.7,9.2,14,7.7,18.2,6.2c0.3-0.1,0.6-0.1,0.9,0
		c4.3,1.5,8.5,3.1,12.8,4.6c0.6,0.2,0.6,0.3,0.6,0.9c0,4.6,0,9.3,0,13.9c0,0.6-0.1,0.7-0.7,0.9c-4.2,1.5-8.5,3.1-12.7,4.6
		c-0.3,0.1-0.6,0.1-1,0c-4.2-1.6-8.5-3.1-12.7-4.6c-0.6-0.2-0.7-0.3-0.7-0.9C4.8,23.3,4.8,21,4.8,18.7"/>
	</g>
	<rect x="18.1" y="24.1" class="st1" width="1.1" height="1.2"/>
	<rect x="18.1" y="26.5" class="st1" width="1.1" height="1.2"/>
</svg>
