<svg xmlns="http://www.w3.org/2000/svg" width="24.562" height="24.562" viewBox="0 0 24.562 24.562" fill="currentColor">
    <path d="M-1130.511 285.285a1.427 1.427 0 0 0 .511.27 1.111 1.111 0 0 0 1.068-.285c.962-.834 3.216-2.869 4.307-3.857h-10.484l4.585 3.86z" transform="translate(1142.01 -273.595)"/>
    <path d="M-1144.124 303.8a2.59 2.59 0 0 1-.748-.112 3.056 3.056 0 0 1-1.073-.589l-4.493-3.783v6.651a.949.949 0 0 0 .9.989h10.769a.949.949 0 0 0 .9-.989v-6.897c-1.115 1.01-3.487 3.153-4.494 4.026a2.646 2.646 0 0 1-1.761.704z" transform="translate(1156.434 -290.21)"/>
    <path d="M-1239.719 149A12.281 12.281 0 0 0-1252 161.281a12.281 12.281 0 0 0 12.281 12.281 12.281 12.281 0 0 0 12.281-12.281A12.281 12.281 0 0 0-1239.719 149zm7.74 15.754a2.425 2.425 0 0 1-2.356 2.484h-10.765a2.426 2.426 0 0 1-2.356-2.484v-6.947a2.426 2.426 0 0 1 2.356-2.484h10.769a2.425 2.425 0 0 1 2.356 2.484z" transform="translate(1252 -149)"/>
</svg>
