<svg xmlns="http://www.w3.org/2000/svg" width="24.562" height="24.562" viewBox="0 0 24.562 24.562" fill="currentColor">
    <g transform="translate(-1601.76 -1004.133)">
        <path d="M0 0a2.85 2.85 0 0 1-.828 2.012 2.783 2.783 0 0 1-1.979.833h-.038A2.836 2.836 0 0 1-5.652 0a2.8 2.8 0 0 1 .828-1.979 2.8 2.8 0 0 1 1.979-.828h.038A2.828 2.828 0 0 1 0 0" transform="translate(1616.867 1016.414)"/>
        <path d="M0 0h-7.15a2.923 2.923 0 0 0-2.919 2.92v7.112a2.923 2.923 0 0 0 2.919 2.92H0a2.923 2.923 0 0 0 2.919-2.92V2.92A2.923 2.923 0 0 0 0 0m-.552 9.494a4.263 4.263 0 0 1-3 1.249h-.037a4.257 4.257 0 0 1-4.23-4.267 4.275 4.275 0 0 1 1.245-3 4.194 4.194 0 0 1 2.981-1.267h.037A4.314 4.314 0 0 1 .711 6.476 4.25 4.25 0 0 1-.552 9.494m1.82-6.578a.9.9 0 0 1-.632.266.891.891 0 0 1-.645-.266.916.916 0 0 1 0-1.264.887.887 0 0 1 .645-.267.911.911 0 0 1 .9.9.9.9 0 0 1-.267.632" transform="translate(1617.616 1009.938)"/>
        <path d="M0 0a12.28 12.28 0 0 0-12.281 12.281A12.281 12.281 0 0 0 0 24.562 12.281 12.281 0 0 0 0 0m7.842 15.874a4.25 4.25 0 0 1-4.23 4.23h-7.224a4.25 4.25 0 0 1-4.23-4.23V8.687a4.249 4.249 0 0 1 4.23-4.229h7.224a4.249 4.249 0 0 1 4.23 4.229z" transform="translate(1614.041 1004.133)"/>
    </g>
</svg>
