<svg xmlns="http://www.w3.org/2000/svg" width="18.07" height="18.027" viewBox="0 0 18.07 18.027" fill="currentColor">
    <g transform="translate(-1630.649 -607.635)">
        <path d="M0 0h-8.323A4.9 4.9 0 0 0-13.2 4.873v8.281a4.9 4.9 0 0 0 4.874 4.873H0a4.9 4.9 0 0 0 4.873-4.873V4.873A4.9 4.9 0 0 0 0 0m3.321 13.111a3.368 3.368 0 0 1-3.364 3.364h-8.238a3.368 3.368 0 0 1-3.363-3.364V4.917a3.367 3.367 0 0 1 3.363-3.364h8.238a3.368 3.368 0 0 1 3.364 3.364z" transform="translate(1643.846 607.635)"/>
        <path d="M0 0a1.032 1.032 0 0 1-.307.728 1.037 1.037 0 0 1-.728.307 1.025 1.025 0 0 1-.744-.307A1.044 1.044 0 0 1-2.07 0a1.044 1.044 0 0 1 .291-.728 1.021 1.021 0 0 1 .744-.307A1.049 1.049 0 0 1 0 0" transform="translate(1645.572 611.818)"/>
        <path d="M0 0h-.043a4.83 4.83 0 0 0-3.439 1.456 4.927 4.927 0 0 0-1.434 3.46A4.9 4.9 0 0 0-.043 9.833H0a4.913 4.913 0 0 0 3.461-1.439 4.895 4.895 0 0 0 1.456-3.478A4.97 4.97 0 0 0 0 0m2.281 7.235A3.213 3.213 0 0 1 0 8.194h-.043a3.268 3.268 0 0 1-3.234-3.278 3.221 3.221 0 0 1 .954-2.28 3.221 3.221 0 0 1 2.28-.954H0a3.258 3.258 0 0 1 3.235 3.234 3.291 3.291 0 0 1-.954 2.319" transform="translate(1639.706 611.732)"/>
    </g>
</svg>
