<svg xmlns="http://www.w3.org/2000/svg" width="24.562" height="24.562" viewBox="0 0 24.562 24.562" fill="currentColor">
    <path d="M0 0a12.281 12.281 0 0 0-12.281 12.281A12.281 12.281 0 0 0 0 24.562a12.281 12.281 0 0 0 12.281-12.281A12.281 12.281 0 0 0 0 0m-4.065 19.1h-2.766V9.816h2.766zm-1.4-10.65A1.647 1.647 0 0 1-7.1 6.777 1.647 1.647 0 0 1-5.465 5.1a1.676 1.676 0 0 1 1.673 1.677A1.676 1.676 0 0 1-5.465 8.45M6.828 19.1H4.1v-5.02a2.031 2.031 0 0 0-.521-1.336 1.726 1.726 0 0 0-1.289-.542 2 2 0 0 0-1.374.542A1.909 1.909 0 0 0 .31 14.08v5.02h-2.736V9.816H.306v1.3a3.158 3.158 0 0 1 2.629-1.4h.751a3.154 3.154 0 0 1 3.142 3.141z" transform="translate(12.281)"/>
</svg>
