<svg xmlns="http://www.w3.org/2000/svg" viewBox="0 0 25.99 20.18" fill="currentColor">
  <path d="M24.23,18.42H21.61a2.63,2.63,0,0,1-2.7-2.65A2.7,2.7,0,0,1,21.61,13a2.63,2.63,0,0,1,2.62,2.73Zm-2.6-7.12a4.44,4.44,0,0,0-4.44,4.49,4.33,4.33,0,0,0,4.44,4.37H26V15.79a4.34,4.34,0,0,0-4.32-4.49"/>
  <polygon points="9.07 11.26 9.07 13.04 13.64 13.04 9.27 18.74 9.07 18.99 9.07 20.18 16.28 20.18 16.28 18.42 11.7 18.42 16.09 12.68 16.28 12.43 16.28 11.26 9.07 11.26"/>
  <polygon points="0 0 0 1.76 2.46 1.76 2.46 7.08 2.46 8.05 2.46 9 4.37 9 4.37 8.05 4.37 7.08 4.37 1.76 6.83 1.76 6.83 0 0 0"/>
  <path d="M9.19,3.57a2.69,2.69,0,0,1,2.52-1.81,2.57,2.57,0,0,1,2.55,1.81ZM13.39.32A4.53,4.53,0,0,0,11.78,0h-.06A4.32,4.32,0,0,0,11,.05,4.43,4.43,0,0,0,7.32,4.46a4.44,4.44,0,0,0,4.4,4.46h.34a4,4,0,0,0,1.81-.44l.07,0a4.56,4.56,0,0,0,1.33-1L14.2,6.11a4.07,4.07,0,0,1-.6.52,3.87,3.87,0,0,1-.44.23,3.3,3.3,0,0,1-1.26.29h-.18a2.64,2.64,0,0,1-2-.93h0a2.74,2.74,0,0,1-.51-.89h6.93V4.46A4.28,4.28,0,0,0,13.39.32"/>
  <path d="M21.58,0a4.44,4.44,0,0,0-4.4,4.46V9h1.74V4.46a2.67,2.67,0,1,1,5.33,0V9H26V4.46A4.44,4.44,0,0,0,21.58,0"/>
</svg>