<svg xmlns="http://www.w3.org/2000/svg" width="23.091" height="23.093" viewBox="0 0 23.091 23.093" stroke="currentColor">
    <path d="m22.403 10.355-3.52-2.031a1.391 1.391 0 0 0-1.374 0 1.375 1.375 0 0 0-.689 1.191v.04h-3.329V6.273h.095a1.378 1.378 0 0 0 1.376-1.376 1.36 1.36 0 0 0-.261-.8l-1.963-3.4a1.379 1.379 0 0 0-1.192-.69 1.381 1.381 0 0 0-1.193.689L8.322 4.215a1.377 1.377 0 0 0 0 1.376 1.382 1.382 0 0 0 1.192.688h.087v3.276H6.272v-.04a1.38 1.38 0 0 0-.688-1.192 1.4 1.4 0 0 0-1.375 0l-3.52 2.032a1.378 1.378 0 0 0-.686 1.192 1.38 1.38 0 0 0 .688 1.191l3.512 2.032a1.4 1.4 0 0 0 1.377 0 1.38 1.38 0 0 0 .688-1.192v-.132h3.335v3.375h-.087a1.38 1.38 0 0 0-1.191.687 1.379 1.379 0 0 0 0 1.377l2.032 3.52a1.382 1.382 0 0 0 1.193.688 1.378 1.378 0 0 0 1.191-.688l2.032-3.52a1.375 1.375 0 0 0 0-1.376 1.377 1.377 0 0 0-1.192-.689h-.086v-3.375h3.329v.134a1.377 1.377 0 0 0 .688 1.191 1.4 1.4 0 0 0 1.375 0l3.516-2.032a1.379 1.379 0 0 0 .688-1.192 1.376 1.376 0 0 0-.688-1.191zm-.569 1.4-3.521 2.032a.241.241 0 0 1-.237 0 .237.237 0 0 1-.119-.206v-1.272h-5.6v5.646h1.224a.24.24 0 0 1 .208.12.238.238 0 0 1 0 .238l-2.032 3.521a.249.249 0 0 1-.413 0l-2.041-3.519a.24.24 0 0 1 0-.239.239.239 0 0 1 .21-.121h1.225v-5.646H5.133v1.27a.238.238 0 0 1-.117.206.242.242 0 0 1-.24 0l-3.52-2.03a.239.239 0 0 1-.119-.206.234.234 0 0 1 .12-.206L4.775 9.31a.25.25 0 0 1 .24 0 .24.24 0 0 1 .118.207v1.177h5.605V5.136H9.513a.237.237 0 0 1-.206-.12.238.238 0 0 1 0-.239l2.032-3.522a.249.249 0 0 1 .413 0l1.981 3.434.042.063a.24.24 0 0 1 .049.144.241.241 0 0 1-.247.24h-1.224v5.558h5.6V9.515a.237.237 0 0 1 .12-.206.241.241 0 0 1 .238 0l3.525 2.032a.238.238 0 0 1 .118.206.241.241 0 0 1-.12.208z"/>
</svg>
