<?xml version="1.0" encoding="utf-8"?>
<!-- Generator: Adobe Illustrator 21.0.0, SVG Export Plug-In . SVG Version: 6.00 Build 0)  -->
<svg version="1.1"
	xmlns="http://www.w3.org/2000/svg"
	xmlns:xlink="http://www.w3.org/1999/xlink" x="0px" y="0px" viewBox="0 0 36.1 36.1" xml:space="preserve" fill="currentColor">
	<g>
		<path class="st0" d="M7.2,28.9c0-0.1,0-0.1,0-0.2c0-6.6,0-13.2,0-19.8c0-0.4-0.1-0.8-0.3-1.2c-0.6-1.3-2-2-3.4-1.7
		c-1.4,0.3-2.3,1.5-2.3,3c0,6.5,0,13.1,0,19.6c0,0.1,0,0.2,0.1,0.2C3,27.2,5.5,27.3,7.2,28.9 M19.1,36.1c-4.9,0-9.9,0-14.8,0
		c-2.1,0-3.7-1.3-4.2-3.2C0,32.5,0,32.2,0,31.9C0,24.3,0,16.7,0,9c0-2.4,2-4.3,4.4-4.2c2.1,0.1,3.9,1.8,4,4c0,0.1,0,0.3,0,0.4
		c0,7.5,0,15,0,22.5c0,0.5-0.1,0.7-0.5,0.8c-0.4,0.1-0.7-0.2-0.8-0.6c0-0.6-0.2-1.1-0.4-1.6c-0.7-1.2-2.3-1.7-3.6-1.2
		c-1.3,0.5-2.2,1.9-1.9,3.2c0.2,1.5,1.4,2.6,2.9,2.6c0.1,0,0.3,0,0.4,0c9.8,0,19.7,0,29.5,0c0.8,0,0.9-0.1,0.9-0.9
		c0-7.8,0-15.6,0-23.5c0-0.7-0.2-0.9-0.9-0.9c-0.3,0-0.6,0-0.9,0c-0.4,0-0.6-0.3-0.6-0.6c0-0.3,0.2-0.6,0.6-0.6c0.5,0,0.9,0,1.4,0
		c0.9,0.1,1.6,0.8,1.6,1.7c0,0.1,0,0.3,0,0.4c0,7.9,0,15.7,0,23.6c0,1.3-0.7,2-2.1,2C29.1,36.1,24.1,36.1,19.1,36.1L19.1,36.1z"/>
		<path class="st0" d="M21.6,32.5c-3.3,0-6.6,0-9.9,0c-0.7,0-0.9-0.2-0.9-0.9c0-5.9,0-11.7,0-17.6c0-0.7,0.2-0.8,0.9-0.8
		c2.3,0,4.6,0,6.9,0c0.4,0,0.7,0.2,0.7,0.5c0,0.4-0.2,0.7-0.6,0.7c-0.6,0-1.1,0-1.7,0c-1.5,0-3.1,0-4.6,0c-0.3,0-0.3,0-0.3,0.3
		c0,2.2,0,4.4,0,6.6c0,0.2,0,0.3,0.3,0.3c1.4,0,2.8,0,4.2,0c0.3,0,0.3-0.1,0.3-0.3c0-1.3,0-2.5,0-3.8c0-0.4,0.2-0.7,0.6-0.7
		c0.4,0,0.6,0.3,0.6,0.7c0,1.3,0,2.5,0,3.8c0,0.3,0.1,0.4,0.4,0.4c0.3,0,0.5,0,0.8,0c0.4,0,0.6,0.2,0.6,0.6c0,1.6,0,3.2,0,4.8
		c0,0.4-0.3,0.6-0.6,0.6c-0.4,0-0.6-0.2-0.6-0.6c0-1.3,0-2.6,0-3.9c0-0.3-0.1-0.3-0.3-0.3c-2,0-4,0-6,0c-0.3,0-0.3,0.1-0.3,0.3
		c0,2.6,0,5.2,0,7.8c0,0.3,0.1,0.3,0.3,0.3c3.2,0,6.4,0,9.6,0c0.3,0,0.3-0.1,0.3-0.3c0-1.7,0-3.3,0-5c0-0.3,0.1-0.6,0.4-0.7
		c0.4-0.1,0.8,0.2,0.8,0.7c0,1.6,0,3.3,0,4.9c0,0.4,0.1,0.4,0.4,0.4c2.4,0,4.7,0,7.1,0c0.3,0,0.3-0.1,0.3-0.3c0-2.6,0-5.2,0-7.8
		c0-0.3-0.1-0.3-0.3-0.3c-2.6,0-5.3,0-7.9,0c-0.6,0-0.8-0.2-0.8-0.8c0-1.1,0-2.2,0-3.3c0-0.5,0.2-0.7,0.6-0.7c0.4,0,0.6,0.3,0.6,0.7
		c0,0.8,0,1.7,0,2.5c0,0.3,0,0.4,0.3,0.4c2.4,0,4.8,0,7.2,0c0.2,0,0.3,0,0.3-0.3c0-1.8,0-3.6,0-5.4c0-0.3-0.1-0.3-0.3-0.3
		c-1.3,0-2.5,0-3.8,0c-0.3,0-0.6-0.1-0.7-0.4c-0.1-0.4,0.1-0.8,0.5-0.8c1.6,0,3.2,0,4.8,0c0.4,0,0.6,0.2,0.6,0.6c0,0.1,0,0.2,0,0.3
		c0,5.4,0,10.9,0,16.3c0,0.7-0.2,0.9-0.9,0.9C28.3,32.5,25,32.5,21.6,32.5"/>
		<path class="st1" d="M23.7,14c-0.5-0.5-1.1-1.1-1.6-1.6c-0.1,0.5-0.2,1.1-0.3,1.7c0,0.2,0,0.3,0.2,0.2C22.7,14.2,23.2,14.1,23.7,14
		 M33.3,1.2c-0.2,0-0.4,0.1-0.7,0.2c-0.2,0.1-0.2,0.2,0,0.3c0.6,0.6,1.2,1.2,1.7,1.7c0.2,0.2,0.3,0.1,0.4-0.1
		C35.2,2.4,34.5,1.2,33.3,1.2 M33.1,3.8c-0.1,0.1-0.2,0.3-0.2,0.3c-2,2-3.9,4-5.9,5.9c-0.8,0.8-1.6,1.6-2.4,2.4
		c-0.2,0.2-0.2,0.2,0,0.4c0.1,0.1,0.2,0.1,0.2,0.2c0.2,0.3,0.3,0.2,0.5,0c2.7-2.8,5.5-5.5,8.3-8.3c0.1-0.1,0.3-0.1,0.2-0.3
		C33.5,4.2,33.3,4.1,33.1,3.8 M32.2,3c-0.1-0.2-0.2-0.2-0.3-0.4c-0.2-0.3-0.4-0.3-0.6,0c-2.7,2.7-5.3,5.4-8,8
		c-0.5,0.5-0.4,0.4,0,0.9c0.2,0.2,0.2,0.1,0.4,0C26.4,8.8,29.2,6,32,3.2C32.1,3.1,32.1,3.1,32.2,3 M33.4,0c1.1,0.1,1.9,0.6,2.4,1.6
		c0.5,1.1,0.3,2.1-0.4,2.9c-0.8,0.9-1.7,1.8-2.6,2.6c-2.5,2.5-5,5-7.5,7.5c-0.2,0.2-0.4,0.3-0.7,0.4c-1.1,0.2-2.2,0.4-3.3,0.5
		c-0.5,0.1-0.9-0.2-0.8-0.8c0.2-1.2,0.4-2.3,0.6-3.5c0-0.2,0.1-0.3,0.3-0.5c3.3-3.4,6.7-6.7,10-10.1C31.9,0.3,32.6,0,33.4,0"/>
		<path class="st0" d="M15.6,9.6c-1.8,0-3.5,0-5.3,0c-0.4,0-0.7-0.2-0.7-0.5c0-0.4,0.2-0.7,0.6-0.7c0.5,0,1,0,1.5,0c3,0,6.1,0,9.1,0
		c0.5,0,0.8,0.3,0.7,0.7c-0.1,0.3-0.3,0.5-0.7,0.5C19.1,9.6,17.4,9.6,15.6,9.6"/>
	</g>
</svg>
