<svg xmlns="http://www.w3.org/2000/svg" width="23.445" height="19.011" viewBox="0 0 23.445 19.011" stroke="currentColor">
    <path d="M22.977 0h-4.939a.469.469 0 0 0-.469.469v1.056L15.372.256a.478.478 0 0 0-.469 0 .471.471 0 0 0-.234.407v3.111a.469.469 0 0 0 .234.406.478.478 0 0 0 .469 0l2.2-1.269v1.263a.47.47 0 0 0 .469.469h4.936a.469.469 0 0 0 .468-.469V.469A.469.469 0 0 0 22.977 0z"/>
    <path d="M8.344 2.902a8.006 8.006 0 0 0-5.7 2.356A8 8 0 0 0 1.077 7.48L.41 6.689a.232.232 0 0 0-.266-.067.231.231 0 0 0-.147.227l.181 4.2a.228.228 0 0 0 .153.209.233.233 0 0 0 .252-.063l2.812-3.127a.231.231 0 0 0 .035-.266.233.233 0 0 0-.2-.12.271.271 0 0 0-.041 0l-.9.166a6.77 6.77 0 0 1 1.245-1.71 6.762 6.762 0 0 1 4.81-1.989 6.76 6.76 0 0 1 4.815 1.992 6.818 6.818 0 0 1 0 9.631 6.762 6.762 0 0 1-4.815 1.992 6.761 6.761 0 0 1-4.816-1.992 6.764 6.764 0 0 1-1.356-1.94s-.263-.65-.3-.759l-.007.005a.621.621 0 0 0-.315-.354.621.621 0 0 0-.477-.028.619.619 0 0 0-.352.319.629.629 0 0 0-.033.475c.026.074.058.146.085.219a8.022 8.022 0 0 0 1.871 2.946 8.007 8.007 0 0 0 5.7 2.357 8 8 0 0 0 5.7-2.357 8.067 8.067 0 0 0 0-11.4 8 8 0 0 0-5.7-2.353z"/>
</svg>
