<svg xmlns="http://www.w3.org/2000/svg" width="24.562" height="24.562" viewBox="0 0 24.562 24.562" fill="currentColor">
    <path d="M0 0a12.281 12.281 0 0 0-12.281 12.281A12.281 12.281 0 0 0 0 24.562a12.281 12.281 0 0 0 12.281-12.281A12.281 12.281 0 0 0 0 0m6.348 9.251c.524 7.3-7.342 11.74-13.716 8.108 0 0 3.147.162 4.478-1.371a3.066 3.066 0 0 1-2.9-2.178 1.949 1.949 0 0 0 1.452-.081A3.149 3.149 0 0 1-6.8 10.663a1.986 1.986 0 0 0 1.533.363 3.094 3.094 0 0 1-1.089-4.2S-3.7 10.219.135 10.1a3.2 3.2 0 0 1 5.487-2.785 8.1 8.1 0 0 0 1.895-.847 3.483 3.483 0 0 1-1.411 1.775 6 6 0 0 0 1.734-.484 3.355 3.355 0 0 1-1.492 1.492" transform="translate(12.281)" style="fill:#fff"/>
</svg>
