<svg xmlns="http://www.w3.org/2000/svg" width="23.19" height="22.237" viewBox="0 0 23.19 22.237" stroke="currentColor">
    <path d="M22.7 8.689h-5.17a.491.491 0 0 0-.49.49v1.11l-2.299-1.332a.5.5 0 0 0-.491 0 .494.494 0 0 0-.245.425v3.257a.489.489 0 0 0 .245.424.5.5 0 0 0 .491 0l2.3-1.328v1.321a.492.492 0 0 0 .491.491H22.7a.492.492 0 0 0 .49-.491V9.179a.491.491 0 0 0-.49-.49z"/>
    <path d="m6.196 4.808-.893-.793L.939.141a.564.564 0 0 0-.8.048.564.564 0 0 0 .048.8l4.156 3.69a8.232 8.232 0 0 0 0 12.886L.186 21.254a.563.563 0 0 0-.047.8.56.56 0 0 0 .422.19.56.56 0 0 0 .374-.143l4.364-3.872.897-.802 6.633-5.888a.563.563 0 0 0 0-.843zm-.992 11.993a7.109 7.109 0 0 1 0-11.366l6.4 5.683z"/>
</svg>
