<svg xmlns="http://www.w3.org/2000/svg" width="25.376" height="41.904" viewBox="0 0 25.376 41.904">
    <g data-name="Grupo 11">
        <path data-name="Trazado 148" d="M-2986.486 3555.573a12.7 12.7 0 0 0-12.688 12.688v16.526a12.7 12.7 0 0 0 12.688 12.689 12.7 12.7 0 0 0 12.688-12.689v-16.526a12.7 12.7 0 0 0-12.688-12.688zm11.366 29.215a11.367 11.367 0 0 1-11.366 11.367 11.367 11.367 0 0 1-11.366-11.367v-16.526a11.366 11.366 0 0 1 10.705-11.348V3564a2.724 2.724 0 0 0-2.058 2.638v5.223a2.722 2.722 0 0 0 2.719 2.719 2.723 2.723 0 0 0 2.719-2.719v-5.223a2.724 2.724 0 0 0-2.059-2.638v-7.082a11.366 11.366 0 0 1 10.706 11.348z" transform="translate(2999.175 -3555.573)" style="fill:#434243"/>
        <path data-name="Trazado 149" d="M-2677.9 4187.967a.549.549 0 0 1-.549-.549v-12.1a.549.549 0 0 1 .549-.549.549.549 0 0 1 .549.549v12.1a.549.549 0 0 1-.549.549z" transform="translate(2690.589 -4151.335)" style="fill:#434243"/>
        <path data-name="Trazado 150" d="M-2717.2 4146.74a.546.546 0 0 1-.388-.161l-1.221-1.222-1.221 1.222a.548.548 0 0 1-.776 0 .549.549 0 0 1 0-.776l2-2 2 2a.549.549 0 0 1 0 .776.545.545 0 0 1-.394.161z" transform="translate(2731.499 -4121.541)" style="fill:#434243"/>
        <path data-name="Trazado 151" d="m-2718.81 4454.829-2-2a.548.548 0 0 1 0-.775.548.548 0 0 1 .776 0l1.221 1.222 1.221-1.222a.548.548 0 0 1 .776 0 .548.548 0 0 1 0 .775z" transform="translate(2731.499 -4417.969)" style="fill:#434243"/>
    </g>
</svg>
