<?xml version="1.0" encoding="UTF-8" standalone="no"?>
<!-- Generator: Adobe Illustrator 23.0.1, SVG Export Plug-In . SVG Version: 6.00 Build 0)  -->

<svg
   xmlns:i="&amp;ns_ai;"
   xmlns:dc="http://purl.org/dc/elements/1.1/"
   xmlns:cc="http://creativecommons.org/ns#"
   xmlns:rdf="http://www.w3.org/1999/02/22-rdf-syntax-ns#"
   xmlns:svg="http://www.w3.org/2000/svg"
   xmlns="http://www.w3.org/2000/svg"
   xmlns:sodipodi="http://sodipodi.sourceforge.net/DTD/sodipodi-0.dtd"
   xmlns:inkscape="http://www.inkscape.org/namespaces/inkscape"
   version="1.1"
   id="Layer_1"
   x="0px"
   y="0px"
   viewBox="0 0 402.9981 512"
   xml:space="preserve"
   sodipodi:docname="logo_black2.svg"
   inkscape:version="0.92.5 (2060ec1f9f, 2020-04-08)"
   width="402.99811"
   height="512"><metadata
   id="metadata3787"><rdf:RDF><cc:Work
       rdf:about=""><dc:format>image/svg+xml</dc:format><dc:type
         rdf:resource="http://purl.org/dc/dcmitype/StillImage" /><dc:title></dc:title></cc:Work></rdf:RDF></metadata><defs
   id="defs3785" /><sodipodi:namedview
   pagecolor="#ffffff"
   bordercolor="#666666"
   borderopacity="1"
   objecttolerance="10"
   gridtolerance="10"
   guidetolerance="10"
   inkscape:pageopacity="0"
   inkscape:pageshadow="2"
   inkscape:window-width="1920"
   inkscape:window-height="1016"
   id="namedview3783"
   showgrid="false"
   inkscape:zoom="0.30158104"
   inkscape:cx="1604.1255"
   inkscape:cy="342.34041"
   inkscape:window-x="0"
   inkscape:window-y="27"
   inkscape:window-maximized="1"
   inkscape:current-layer="switch3780"
   inkscape:snap-bbox="true"
   inkscape:snap-global="false" />
	<switch
   id="switch3780"
   transform="translate(-778.17002,-769.82998)">
		<g
   i:extraneous="self"
   id="g3778"
   transform="matrix(0.908349,0,0,0.908349,71.320081,117.48098)">
			<g
   id="g3776">
				<path
   d="m 1048.8,1081.07 c -10.99,0 -19.72,8.73 -19.72,19.72 0,10.99 8.73,19.18 19.72,19.18 h 19.18 v -19.18 c 0,-10.99 -8.19,-19.72 -19.18,-19.72 z"
   id="path3770"
   inkscape:connector-curvature="0" />
				<path
   d="m 1221.82,720.17 c 0,-0.53 -0.2,-1.04 -0.58,-1.42 -0.38,-0.37 -0.88,-0.58 -1.42,-0.58 l -306.78,0.05 c -0.53,0 -1.03,0.21 -1.41,0.59 -0.38,0.37 -0.59,0.88 -0.59,1.41 l 0.01,80.12 c 0,0.53 0.21,1.04 0.59,1.41 0.38,0.38 0.88,0.59 1.42,0.59 l 150.24,-0.03 c 19.35,0.04 35.08,15.82 35.08,35.17 0,11.56 -5.61,22.34 -15.02,28.84 -25.44,17.55 -207.85,105.05 -209.67,105.92 l -0.56,0.27 c -1.74,0.79 -3.29,1.52 -4.74,2.24 l -2.07,1.03 c -54.37,27.87 -88.15,83.11 -88.15,144.16 0,89.27 72.63,161.89 161.9,161.89 89.24,0 161.86,-72.61 161.88,-161.85 V 914.63 c 0,-32.23 17.82,-61.43 46.49,-76.21 l 72.3,-36.36 c 0.15,-0.08 0.27,-0.17 0.37,-0.25 l 0.15,-0.13 c 0.17,-0.17 0.3,-0.37 0.4,-0.59 l 0.06,-0.18 c 0.05,-0.14 0.08,-0.27 0.09,-0.41 l 0.02,-0.07 z M 940.6,999.57 h -17.98 v 38.42 7.06 6.86 h -13.99 v -6.86 -7.06 -38.42 h -17.97 v -12.71 h 49.94 z m 3.6,19.51 c 0,-16.14 11.76,-29.43 27.2,-31.84 1.64,-0.26 3.32,-0.39 5.02,-0.39 0.13,0 0.27,0 0.4,0.01 h 0.06 c 3.96,0.05 7.98,0.84 11.77,2.33 10.96,4.3 20,14.49 20,29.89 v 6.28 h -50.71 c 0.84,2.4 2.11,4.59 3.74,6.46 l 0.01,0.02 c 3.57,4.14 8.82,6.75 14.73,6.75 0.37,0 0.78,0 1.21,-0.02 h 0.09 c 2.31,-0.09 5.51,-0.47 9.21,-2.12 1.03,-0.45 2.09,-1.01 3.2,-1.67 0.76,-0.46 3.11,-2.35 4.41,-3.75 l 7.79,9.76 c -2.74,2.9 -6.03,5.32 -9.7,7.09 -0.16,0.08 -0.33,0.16 -0.48,0.24 -5.26,2.63 -9.67,3.09 -13.26,3.16 -0.4,0.01 -0.81,0.02 -1.21,0.02 h -1.25 c -17.85,0.01 -32.23,-14.51 -32.23,-32.22 z m 65.61,57.57 -1.41,1.85 -32.1,41.47 h 33.51 v 12.72 h -52.77 v -8.63 l 1.41,-1.78 32,-41.21 h -33.41 v -12.84 h 52.77 z m 70.75,55.91 h -31.58 c -18.1,0 -32.48,-13.48 -32.48,-31.58 0,-18.1 14.38,-32.48 32.48,-32.48 18.1,0 31.58,14.38 31.58,32.48 z m 0.25,-94.57 v 6.9 7.02 h -12.71 v -7.02 -6.9 -18.91 c 0,-10.79 -8.73,-19.52 -19.51,-19.52 -10.79,0 -19.52,8.73 -19.52,19.52 v 18.91 6.9 7.02 h -12.71 v -7.02 -6.9 -18.91 c 0,-17.85 14.51,-32.23 32.23,-32.23 17.72,0 32.23,14.38 32.23,32.23 v 18.91 z m 20.08,-148.67 -13.26,35.25 c 0,0.01 0,0.01 -0.01,0.02 l -0.04,0.12 -0.01,0.01 c -5.22,13.76 -18.52,23.54 -34.11,23.54 h -26.94 c -6.47,0 -11.72,-5.25 -11.72,-11.73 0,-4.12 2.13,-7.74 5.35,-9.83 v -0.01 l 62.71,-36.53 11.43,-6.65 c 0.69,-0.42 1.48,-0.67 2.34,-0.67 2.56,0 4.64,2.08 4.64,4.64 -0.01,0.66 -0.14,1.28 -0.38,1.84 z m -5.53,-9.99 -52.72,29.56 c -0.84,0.46 -1.8,0.73 -2.82,0.73 -3.22,0 -5.83,-2.61 -5.83,-5.83 0,-1.08 0.3,-2.09 0.81,-2.96 0.51,-0.86 1.25,-1.59 2.12,-2.09 l 42.3,-24.7 18.03,-10.51 h 0.01 c 0.43,-0.27 0.94,-0.44 1.49,-0.44 1.16,0 2.24,0.69 2.59,1.71 0.45,1.33 0.64,2.78 0.62,3.81 -0.1,4.69 -2.68,8.75 -6.6,10.72 z m 21.36,-27.34 c 0,1.63 -0.79,3.07 -2,3.99 l -4.83,3.58 h -0.01 c -0.82,0.57 -1.81,0.92 -2.89,0.92 -2.78,0 -5.04,-2.26 -5.04,-5.05 0,-0.57 0.12,-1.11 0.29,-1.62 l 11.34,-28.34 c 0.25,-0.59 0.83,-1 1.51,-1 0.91,0 1.64,0.73 1.64,1.63 z m 36.61,-30.38 v 0.01 l -30.08,30.72 c -0.44,0.44 -1.05,0.7 -1.73,0.7 -0.69,0 -1.31,-0.28 -1.76,-0.73 -0.45,-0.45 -0.73,-1.08 -0.73,-1.77 l -0.21,-26.08 c 0.42,-9.18 8,-16.49 17.28,-16.49 h 11.4 c 4.46,0 8.07,3.61 8.07,8.07 0,2.16 -0.86,4.12 -2.24,5.57 z"
   id="path3772"
   inkscape:connector-curvature="0" />
				<path
   d="m 976.42,999.57 c -8.59,0 -15.79,5.53 -18.48,13.09 h 37.1 c -2.69,-8.99 -10.91,-13.09 -18.62,-13.09 z"
   id="path3774"
   inkscape:connector-curvature="0" />
			</g>
		</g>
	</switch>
</svg>