<?xml version="1.0" encoding="utf-8"?>
<!-- Generator: Adobe Illustrator 23.0.1, SVG Export Plug-In . SVG Version: 6.00 Build 0)  -->
<!DOCTYPE svg PUBLIC "-//W3C//DTD SVG 1.1//EN" "http://www.w3.org/Graphics/SVG/1.1/DTD/svg11.dtd" [
	<!ENTITY ns_extend "http://ns.adobe.com/Extensibility/1.0/">
<!ENTITY ns_ai "http://ns.adobe.com/AdobeIllustrator/10.0/">
<!ENTITY ns_graphs "http://ns.adobe.com/Graphs/1.0/">
<!ENTITY ns_vars "http://ns.adobe.com/Variables/1.0/">
<!ENTITY ns_imrep "http://ns.adobe.com/ImageReplacement/1.0/">
<!ENTITY ns_sfw "http://ns.adobe.com/SaveForWeb/1.0/">
<!ENTITY ns_custom "http://ns.adobe.com/GenericCustomNamespace/1.0/">
<!ENTITY ns_adobe_xpath "http://ns.adobe.com/XPath/1.0/">
]>
<svg version="1.1" id="Layer_1"
	xmlns:x="&ns_extend;"
	xmlns:i="&ns_ai;"
	xmlns:graph="&ns_graphs;"
	xmlns="http://www.w3.org/2000/svg"
	xmlns:xlink="http://www.w3.org/1999/xlink" x="0px" y="0px" viewBox="0 0 2000 2000" style="enable-background:new 0 0 2000 2000;" xml:space="preserve">
	<switch>
		<g i:extraneous="self">
			<g>
				<path d="M1048.8,1081.07c-10.99,0-19.72,8.73-19.72,19.72c0,10.99,8.73,19.18,19.72,19.18h19.18v-19.18
				C1067.98,1089.8,1059.79,1081.07,1048.8,1081.07z"/>
				<path d="M1221.82,720.17c0-0.53-0.2-1.04-0.58-1.42c-0.38-0.37-0.88-0.58-1.42-0.58l-306.78,0.05c-0.53,0-1.03,0.21-1.41,0.59
				c-0.38,0.37-0.59,0.88-0.59,1.41l0.01,80.12c0,0.53,0.21,1.04,0.59,1.41c0.38,0.38,0.88,0.59,1.42,0.59l150.24-0.03
				c19.35,0.04,35.08,15.82,35.08,35.17c0,11.56-5.61,22.34-15.02,28.84c-25.44,17.55-207.85,105.05-209.67,105.92l-0.56,0.27
				c-1.74,0.79-3.29,1.52-4.74,2.24l-2.07,1.03c-54.37,27.87-88.15,83.11-88.15,144.16c0,89.27,72.63,161.89,161.9,161.89
				c89.24,0,161.86-72.61,161.88-161.85V914.63c0-32.23,17.82-61.43,46.49-76.21l72.3-36.36c0.15-0.08,0.27-0.17,0.37-0.25
				l0.15-0.13c0.17-0.17,0.3-0.37,0.4-0.59l0.06-0.18c0.05-0.14,0.08-0.27,0.09-0.41l0.02-0.07L1221.82,720.17z M940.6,999.57
				h-17.98v38.42v7.06v6.86h-13.99v-6.86v-7.06v-38.42h-17.97v-12.71h49.94V999.57z M944.2,1019.08c0-16.14,11.76-29.43,27.2-31.84
				c1.64-0.26,3.32-0.39,5.02-0.39c0.13,0,0.27,0,0.4,0.01h0.06c3.96,0.05,7.98,0.84,11.77,2.33c10.96,4.3,20,14.49,20,29.89v6.28
				h-50.71c0.84,2.4,2.11,4.59,3.74,6.46l0.01,0.02c3.57,4.14,8.82,6.75,14.73,6.75c0.37,0,0.78,0,1.21-0.02h0.09
				c2.31-0.09,5.51-0.47,9.21-2.12c1.03-0.45,2.09-1.01,3.2-1.67c0.76-0.46,3.11-2.35,4.41-3.75l7.79,9.76
				c-2.74,2.9-6.03,5.32-9.7,7.09c-0.16,0.08-0.33,0.16-0.48,0.24c-5.26,2.63-9.67,3.09-13.26,3.16c-0.4,0.01-0.81,0.02-1.21,0.02
				h-1.25C958.58,1051.31,944.2,1036.79,944.2,1019.08z M1009.81,1076.65l-1.41,1.85l-32.1,41.47h33.51v12.72h-52.77v-8.63
				l1.41-1.78l32-41.21h-33.41v-12.84h52.77V1076.65z M1080.56,1132.56h-31.58c-18.1,0-32.48-13.48-32.48-31.58
				c0-18.1,14.38-32.48,32.48-32.48c18.1,0,31.58,14.38,31.58,32.48V1132.56z M1080.81,1037.99v6.9v7.02h-12.71v-7.02v-6.9v-18.91
				c0-10.79-8.73-19.52-19.51-19.52c-10.79,0-19.52,8.73-19.52,19.52v18.91v6.9v7.02h-12.71v-7.02v-6.9v-18.91
				c0-17.85,14.51-32.23,32.23-32.23c17.72,0,32.23,14.38,32.23,32.23V1037.99z M1100.89,889.32l-13.26,35.25
				c0,0.01,0,0.01-0.01,0.02l-0.04,0.12l-0.01,0.01c-5.22,13.76-18.52,23.54-34.11,23.54h-26.94c-6.47,0-11.72-5.25-11.72-11.73
				c0-4.12,2.13-7.74,5.35-9.83v-0.01l62.71-36.53l11.43-6.65c0.69-0.42,1.48-0.67,2.34-0.67c2.56,0,4.64,2.08,4.64,4.64
				C1101.26,888.14,1101.13,888.76,1100.89,889.32z M1095.36,879.33l-52.72,29.56c-0.84,0.46-1.8,0.73-2.82,0.73
				c-3.22,0-5.83-2.61-5.83-5.83c0-1.08,0.3-2.09,0.81-2.96c0.51-0.86,1.25-1.59,2.12-2.09l42.3-24.7l18.03-10.51h0.01
				c0.43-0.27,0.94-0.44,1.49-0.44c1.16,0,2.24,0.69,2.59,1.71c0.45,1.33,0.64,2.78,0.62,3.81
				C1101.86,873.3,1099.28,877.36,1095.36,879.33z M1116.72,851.99c0,1.63-0.79,3.07-2,3.99l-4.83,3.58h-0.01
				c-0.82,0.57-1.81,0.92-2.89,0.92c-2.78,0-5.04-2.26-5.04-5.05c0-0.57,0.12-1.11,0.29-1.62l11.34-28.34c0.25-0.59,0.83-1,1.51-1
				c0.91,0,1.64,0.73,1.64,1.63L1116.72,851.99z M1153.33,821.61v0.01l-30.08,30.72c-0.44,0.44-1.05,0.7-1.73,0.7
				c-0.69,0-1.31-0.28-1.76-0.73c-0.45-0.45-0.73-1.08-0.73-1.77l-0.21-26.08c0.42-9.18,8-16.49,17.28-16.49h11.4
				c4.46,0,8.07,3.61,8.07,8.07C1155.57,818.2,1154.71,820.16,1153.33,821.61z"/>
				<path d="M976.42,999.57c-8.59,0-15.79,5.53-18.48,13.09h37.1C992.35,1003.67,984.13,999.57,976.42,999.57z"/>
			</g>
		</g>
	</switch>
</svg>
